<svg aria-hidden="true" style="position: absolute; width: 0; height: 0; overflow: hidden;" version="1.1" xmlns="http://www.w3.org/2000/svg" xmlns:xlink="http://www.w3.org/1999/xlink">
<defs>
<symbol id="icon-facebook" viewBox="0 0 32 32">
<path d="M23.982 0.214v4.714h-2.803c-2.197 0-2.607 1.054-2.607 2.571v3.375h5.232l-0.696 5.286h-4.536v13.553h-5.464v-13.553h-4.553v-5.286h4.553v-3.893c0-4.518 2.768-6.982 6.803-6.982 1.928 0 3.59 0.143 4.072 0.214z"></path>
</symbol>
<symbol id="icon-feed" viewBox="0 0 32 32">
<path d="M10.286 24c0 1.893-1.536 3.429-3.429 3.429s-3.429-1.536-3.429-3.429 1.536-3.429 3.429-3.429 3.429 1.536 3.429 3.429zM19.429 26.197c0.018 0.321-0.089 0.625-0.304 0.857-0.214 0.25-0.518 0.375-0.839 0.375h-2.41c-0.59 0-1.072-0.447-1.125-1.035-0.518-5.447-4.839-9.768-10.286-10.286-0.59-0.054-1.035-0.536-1.035-1.125v-2.41c0-0.321 0.125-0.625 0.375-0.839 0.197-0.197 0.482-0.304 0.768-0.304h0.089c3.803 0.304 7.393 1.965 10.089 4.679 2.714 2.696 4.375 6.286 4.679 10.089zM28.571 26.232c0.018 0.304-0.089 0.607-0.321 0.839-0.214 0.232-0.501 0.358-0.822 0.358h-2.553c-0.607 0-1.107-0.464-1.143-1.072-0.59-10.375-8.857-18.642-19.232-19.25-0.607-0.035-1.072-0.536-1.072-1.125v-2.553c0-0.321 0.125-0.607 0.358-0.822 0.214-0.214 0.501-0.321 0.786-0.321h0.054c6.25 0.321 12.125 2.946 16.553 7.393 4.447 4.429 7.072 10.304 7.393 16.553z"></path>
</symbol>
<symbol id="icon-instagram" viewBox="0 0 32 32">
<path fill="#e4405f" style="fill: var(--color1, #e4405f)" d="M16 0c-4.347 0-4.889 0.020-6.596 0.096-1.704 0.080-2.864 0.348-3.884 0.744-1.052 0.408-1.945 0.956-2.835 1.845s-1.439 1.781-1.845 2.835c-0.396 1.020-0.665 2.18-0.744 3.884-0.080 1.707-0.096 2.249-0.096 6.596s0.020 4.889 0.096 6.596c0.080 1.703 0.348 2.864 0.744 3.884 0.408 1.051 0.956 1.945 1.845 2.835 0.889 0.888 1.781 1.439 2.835 1.845 1.021 0.395 2.181 0.665 3.884 0.744 1.707 0.080 2.249 0.096 6.596 0.096s4.889-0.020 6.596-0.096c1.703-0.080 2.864-0.349 3.884-0.744 1.051-0.408 1.945-0.957 2.835-1.845 0.888-0.889 1.439-1.78 1.845-2.835 0.395-1.020 0.665-2.181 0.744-3.884 0.080-1.707 0.096-2.249 0.096-6.596s-0.020-4.889-0.096-6.596c-0.080-1.703-0.349-2.865-0.744-3.884-0.408-1.052-0.957-1.945-1.845-2.835-0.889-0.889-1.78-1.439-2.835-1.845-1.020-0.396-2.181-0.665-3.884-0.744-1.707-0.080-2.249-0.096-6.596-0.096zM16 2.88c4.271 0 4.78 0.021 6.467 0.095 1.56 0.073 2.407 0.332 2.969 0.553 0.749 0.289 1.28 0.636 1.843 1.195 0.559 0.56 0.905 1.092 1.195 1.841 0.219 0.563 0.48 1.409 0.551 2.969 0.076 1.688 0.093 2.195 0.093 6.467s-0.020 4.78-0.099 6.467c-0.081 1.56-0.341 2.407-0.561 2.969-0.299 0.749-0.639 1.28-1.199 1.843-0.559 0.559-1.099 0.905-1.84 1.195-0.56 0.219-1.42 0.48-2.98 0.551-1.699 0.076-2.199 0.093-6.479 0.093-4.281 0-4.781-0.020-6.479-0.099-1.561-0.081-2.421-0.341-2.981-0.561-0.759-0.299-1.28-0.639-1.839-1.199-0.561-0.559-0.92-1.099-1.2-1.84-0.22-0.56-0.479-1.42-0.56-2.98-0.060-1.68-0.081-2.199-0.081-6.459 0-4.261 0.021-4.781 0.081-6.481 0.081-1.56 0.34-2.419 0.56-2.979 0.28-0.76 0.639-1.28 1.2-1.841 0.559-0.559 1.080-0.919 1.839-1.197 0.56-0.221 1.401-0.481 2.961-0.561 1.7-0.060 2.2-0.080 6.479-0.080zM16 7.784c-4.54 0-8.216 3.68-8.216 8.216 0 4.54 3.68 8.216 8.216 8.216 4.54 0 8.216-3.68 8.216-8.216 0-4.54-3.68-8.216-8.216-8.216zM16 21.333c-2.947 0-5.333-2.387-5.333-5.333s2.387-5.333 5.333-5.333 5.333 2.387 5.333 5.333-2.387 5.333-5.333 5.333zM26.461 7.46c0 1.060-0.861 1.92-1.92 1.92s-1.92-0.861-1.92-1.92 0.861-1.919 1.92-1.919c1.057-0.001 1.92 0.86 1.92 1.919z"></path>
</symbol>
<symbol id="icon-linkedin-square" viewBox="0 0 32 32">
<path d="M6.518 25.25h4.125v-12.393h-4.125v12.393zM10.911 9.035c-0.018-1.214-0.893-2.143-2.304-2.143s-2.339 0.928-2.339 2.143c0 1.178 0.893 2.143 2.286 2.143h0.018c1.447 0 2.339-0.965 2.339-2.143zM21.358 25.25h4.125v-7.107c0-3.803-2.035-5.571-4.75-5.571-2.214 0-3.197 1.232-3.733 2.089h0.035v-1.803h-4.125s0.054 1.161 0 12.393v0h4.125v-6.928c0-0.358 0.018-0.733 0.125-1 0.304-0.733 0.982-1.501 2.125-1.501 1.482 0 2.072 1.125 2.072 2.803v6.625zM29.714 7.429v17.143c0 2.839-2.304 5.143-5.143 5.143h-17.143c-2.839 0-5.143-2.304-5.143-5.143v-17.143c0-2.839 2.304-5.143 5.143-5.143h17.143c2.839 0 5.143 2.304 5.143 5.143z"></path>
</symbol>
<symbol id="icon-pinterest" viewBox="0 0 32 32">
<path d="M29.714 16c0 7.571-6.143 13.714-13.714 13.714-1.358 0-2.642-0.197-3.893-0.571 0.518-0.822 1.107-1.875 1.393-2.928 0 0 0.161-0.607 0.965-3.768 0.464 0.911 1.857 1.714 3.339 1.714 4.41 0 7.41-4.018 7.41-9.41 0-4.054-3.447-7.857-8.696-7.857-6.501 0-9.786 4.679-9.786 8.571 0 2.358 0.893 4.464 2.803 5.25 0.304 0.125 0.59 0 0.679-0.358 0.072-0.232 0.214-0.839 0.286-1.089 0.089-0.358 0.054-0.464-0.197-0.768-0.553-0.661-0.911-1.501-0.911-2.696 0-3.464 2.59-6.571 6.75-6.571 3.679 0 5.714 2.25 5.714 5.267 0 3.946-1.75 7.286-4.358 7.286-1.429 0-2.501-1.178-2.161-2.642 0.41-1.733 1.214-3.607 1.214-4.857 0-1.125-0.607-2.072-1.857-2.072-1.464 0-2.642 1.518-2.642 3.553 0 0 0 1.304 0.447 2.178-1.501 6.358-1.768 7.464-1.768 7.464-0.25 1.035-0.267 2.197-0.232 3.161-4.839-2.125-8.214-6.946-8.214-12.571 0-7.571 6.143-13.714 13.714-13.714s13.714 6.143 13.714 13.714z"></path>
</symbol>
<symbol id="icon-twitter" viewBox="0 0 32 32">
<path d="M30.071 7.286c-0.786 1.143-1.768 2.161-2.893 2.982 0.018 0.25 0.018 0.501 0.018 0.75 0 7.625-5.803 16.41-16.41 16.41-3.267 0-6.304-0.946-8.857-2.59 0.464 0.054 0.911 0.072 1.393 0.072 2.696 0 5.178-0.911 7.161-2.464-2.536-0.054-4.661-1.714-5.393-4 0.358 0.054 0.714 0.089 1.089 0.089 0.518 0 1.035-0.072 1.518-0.197-2.642-0.536-4.625-2.857-4.625-5.661v-0.072c0.768 0.429 1.661 0.696 2.607 0.733-1.553-1.035-2.571-2.803-2.571-4.803 0-1.072 0.286-2.054 0.786-2.911 2.839 3.499 7.107 5.786 11.893 6.035-0.089-0.429-0.143-0.875-0.143-1.321 0-3.178 2.571-5.768 5.768-5.768 1.661 0 3.161 0.696 4.214 1.822 1.304-0.25 2.553-0.733 3.661-1.393-0.429 1.339-1.339 2.464-2.536 3.178 1.161-0.125 2.286-0.447 3.321-0.893z"></path>
</symbol>
<symbol id="icon-menu" viewBox="0 0 32 32">
<path d="M2 6h28v6h-28zM2 14h28v6h-28zM2 22h28v6h-28z"></path>
</symbol>
</defs>
</svg>
